# xmcd
#
# Track frame offsets:
#	150
#	11326
#	24835
#	35563
#	49890
#	66465
#	76523
#	93773
#	103827
#	120492
#	132048
#	149223
#
# Disc length: 2149 seconds
#
# Revision: 2
# Processed by: cddbd v1.5.2PL0 Copyright (c) Steve Scherf et al.
# Submitted via: MusicManager 7.3.0.0 
#
DISCID=9708630c
DTITLE=Derek Ryan - A Mother's Son
DYEAR=2011
DGENRE=
TTITLE0=The Belle Of Liverpool
TTITLE1=A Mother's Son
TTITLE2=There Stands The Glass
TTITLE3=Angel Of The Night
TTITLE4=God's Plan
TTITLE5=Run To The Door
TTITLE6=I Buy Her Roses
TTITLE7=Ain't Love A Lot Like That
TTITLE8=Fly
TTITLE9=I Saw The Light
TTITLE10=The Red, Yellow And Green
TTITLE11=Broken-Hearted Road
EXTD=
EXTT0=
EXTT1=
EXTT2=
EXTT3=
EXTT4=
EXTT5=
EXTT6=
EXTT7=
EXTT8=
EXTT9=
EXTT10=
EXTT11=
PLAYORDER=
